<mxfile host="app.diagrams.net" modified="2021-04-20T15:12:55.079Z" agent="5.0 (Windows NT 10.0; Win64; x64) AppleWebKit/537.36 (KHTML, like Gecko) Chrome/89.0.4389.128 Safari/537.36" etag="WZhcK5bmbWJIp28Xx5yB" version="14.4.9" type="github">
  <diagram id="TIQiLkXEC3PqR95uw1yW" name="Page-1">
    <mxGraphModel dx="1126" dy="897" grid="1" gridSize="10" guides="1" tooltips="1" connect="1" arrows="1" fold="1" page="1" pageScale="1" pageWidth="1800" pageHeight="8000" math="0" shadow="0">
      <root>
        <mxCell id="0" />
        <mxCell id="1" parent="0" />
        <mxCell id="-r-eWaF7yrH_TR99yYgg-29" value="" style="rounded=1;whiteSpace=wrap;html=1;" vertex="1" parent="1">
          <mxGeometry x="60" y="25" width="280" height="190" as="geometry" />
        </mxCell>
        <mxCell id="-r-eWaF7yrH_TR99yYgg-26" value="" style="rounded=0;whiteSpace=wrap;html=1;" vertex="1" parent="1">
          <mxGeometry x="390" y="10" width="540" height="380" as="geometry" />
        </mxCell>
        <mxCell id="-r-eWaF7yrH_TR99yYgg-2" value="VERTICA&lt;br&gt;DB" style="shape=cylinder3;whiteSpace=wrap;html=1;boundedLbl=1;backgroundOutline=1;size=15;" vertex="1" parent="1">
          <mxGeometry x="180" y="80" width="60" height="80" as="geometry" />
        </mxCell>
        <mxCell id="-r-eWaF7yrH_TR99yYgg-3" value="PCF" style="rounded=0;whiteSpace=wrap;html=1;" vertex="1" parent="1">
          <mxGeometry x="790" y="230" width="120" height="60" as="geometry" />
        </mxCell>
        <mxCell id="-r-eWaF7yrH_TR99yYgg-5" value="" style="edgeStyle=orthogonalEdgeStyle;rounded=0;orthogonalLoop=1;jettySize=auto;html=1;" edge="1" parent="1" source="-r-eWaF7yrH_TR99yYgg-4" target="-r-eWaF7yrH_TR99yYgg-2">
          <mxGeometry relative="1" as="geometry" />
        </mxCell>
        <mxCell id="-r-eWaF7yrH_TR99yYgg-4" value="ORACLE SM9" style="shape=cylinder3;whiteSpace=wrap;html=1;boundedLbl=1;backgroundOutline=1;size=15;" vertex="1" parent="1">
          <mxGeometry x="80" y="80" width="60" height="80" as="geometry" />
        </mxCell>
        <mxCell id="-r-eWaF7yrH_TR99yYgg-18" style="edgeStyle=orthogonalEdgeStyle;rounded=0;orthogonalLoop=1;jettySize=auto;html=1;exitX=0.875;exitY=0.5;exitDx=0;exitDy=0;exitPerimeter=0;entryX=0;entryY=0;entryDx=0;entryDy=20;entryPerimeter=0;" edge="1" parent="1" source="-r-eWaF7yrH_TR99yYgg-6" target="-r-eWaF7yrH_TR99yYgg-13">
          <mxGeometry relative="1" as="geometry" />
        </mxCell>
        <mxCell id="-r-eWaF7yrH_TR99yYgg-6" value="&lt;span&gt;Devops&lt;/span&gt;&lt;br&gt;&lt;span&gt;model CI/CD&lt;/span&gt;" style="ellipse;shape=cloud;whiteSpace=wrap;html=1;" vertex="1" parent="1">
          <mxGeometry x="390" y="80" width="120" height="80" as="geometry" />
        </mxCell>
        <mxCell id="-r-eWaF7yrH_TR99yYgg-25" style="edgeStyle=orthogonalEdgeStyle;rounded=0;orthogonalLoop=1;jettySize=auto;html=1;entryX=0;entryY=0.5;entryDx=0;entryDy=0;" edge="1" parent="1" target="-r-eWaF7yrH_TR99yYgg-3">
          <mxGeometry relative="1" as="geometry">
            <mxPoint x="730" y="240" as="sourcePoint" />
          </mxGeometry>
        </mxCell>
        <mxCell id="-r-eWaF7yrH_TR99yYgg-9" value="&lt;span&gt;Devops&lt;/span&gt;&lt;br&gt;API" style="ellipse;shape=cloud;whiteSpace=wrap;html=1;" vertex="1" parent="1">
          <mxGeometry x="670" y="80" width="120" height="80" as="geometry" />
        </mxCell>
        <mxCell id="-r-eWaF7yrH_TR99yYgg-21" style="edgeStyle=orthogonalEdgeStyle;rounded=0;orthogonalLoop=1;jettySize=auto;html=1;exitX=1;exitY=0.5;exitDx=0;exitDy=0;entryX=-0.024;entryY=0.497;entryDx=0;entryDy=0;entryPerimeter=0;" edge="1" parent="1" source="-r-eWaF7yrH_TR99yYgg-12" target="-r-eWaF7yrH_TR99yYgg-6">
          <mxGeometry relative="1" as="geometry" />
        </mxCell>
        <mxCell id="-r-eWaF7yrH_TR99yYgg-12" value="vertica python" style="rounded=0;whiteSpace=wrap;html=1;" vertex="1" parent="1">
          <mxGeometry x="260" y="100" width="60" height="40" as="geometry" />
        </mxCell>
        <mxCell id="-r-eWaF7yrH_TR99yYgg-19" style="edgeStyle=orthogonalEdgeStyle;rounded=0;orthogonalLoop=1;jettySize=auto;html=1;exitX=0;exitY=0;exitDx=60.00000000000001;exitDy=20;exitPerimeter=0;entryX=0.05;entryY=0.531;entryDx=0;entryDy=0;entryPerimeter=0;" edge="1" parent="1" source="-r-eWaF7yrH_TR99yYgg-13" target="-r-eWaF7yrH_TR99yYgg-9">
          <mxGeometry relative="1" as="geometry" />
        </mxCell>
        <mxCell id="-r-eWaF7yrH_TR99yYgg-13" value="" style="shape=cube;whiteSpace=wrap;html=1;boundedLbl=1;backgroundOutline=1;darkOpacity=0.05;darkOpacity2=0.1;" vertex="1" parent="1">
          <mxGeometry x="560" y="100" width="60" height="40" as="geometry" />
        </mxCell>
        <mxCell id="-r-eWaF7yrH_TR99yYgg-14" value="Models" style="text;html=1;strokeColor=none;fillColor=none;align=center;verticalAlign=middle;whiteSpace=wrap;rounded=0;" vertex="1" parent="1">
          <mxGeometry x="560" y="70" width="40" height="20" as="geometry" />
        </mxCell>
        <mxCell id="-r-eWaF7yrH_TR99yYgg-23" value="" style="shape=cube;whiteSpace=wrap;html=1;boundedLbl=1;backgroundOutline=1;darkOpacity=0.05;darkOpacity2=0.1;" vertex="1" parent="1">
          <mxGeometry x="745" y="130" width="45" height="30" as="geometry" />
        </mxCell>
        <mxCell id="-r-eWaF7yrH_TR99yYgg-27" value="AZURE" style="text;html=1;strokeColor=none;fillColor=none;align=center;verticalAlign=middle;whiteSpace=wrap;rounded=0;" vertex="1" parent="1">
          <mxGeometry x="430" y="340" width="40" height="20" as="geometry" />
        </mxCell>
        <mxCell id="-r-eWaF7yrH_TR99yYgg-30" value="LOCAL" style="text;html=1;strokeColor=none;fillColor=none;align=center;verticalAlign=middle;whiteSpace=wrap;rounded=0;" vertex="1" parent="1">
          <mxGeometry x="160" y="180" width="40" height="20" as="geometry" />
        </mxCell>
        <mxCell id="-r-eWaF7yrH_TR99yYgg-31" value="CMDB" style="shape=cylinder3;whiteSpace=wrap;html=1;boundedLbl=1;backgroundOutline=1;size=15;" vertex="1" parent="1">
          <mxGeometry x="140" y="320" width="60" height="80" as="geometry" />
        </mxCell>
      </root>
    </mxGraphModel>
  </diagram>
</mxfile>
